<svg width="24" height="24" viewBox="0 0 24 24" fill="none" xmlns="http://www.w3.org/2000/svg">
<g clip-path="url(#clip0_6_213)">
<path d="M12.0001 0.47998C9.34321 0.47998 7.20009 2.62311 7.20009 5.27998V6.23998H3.40509L3.36009 6.65998L1.44009 23.46L1.38009 24H22.6201L22.5601 23.46L20.6401 6.65998L20.5951 6.23998H16.8001V5.27998C16.8001 2.62311 14.657 0.47998 12.0001 0.47998ZM12.0001 1.43998C14.1432 1.43998 15.8401 3.13686 15.8401 5.27998V6.23998H8.16009V5.27998C8.16009 3.13686 9.85696 1.43998 12.0001 1.43998ZM4.27509 7.19998H7.20009V8.29498C6.91321 8.46186 6.72009 8.76561 6.72009 9.11998C6.72009 9.65061 7.14946 10.08 7.68009 10.08C8.21071 10.08 8.64009 9.65061 8.64009 9.11998C8.64009 8.76561 8.44696 8.46186 8.16009 8.29498V7.19998H15.8401V8.29498C15.5532 8.46186 15.3601 8.76561 15.3601 9.11998C15.3601 9.65061 15.7895 10.08 16.3201 10.08C16.8507 10.08 17.2801 9.65061 17.2801 9.11998C17.2801 8.76561 17.087 8.46186 16.8001 8.29498V7.19998H19.7251L21.5401 23.04H2.46009L4.27509 7.19998Z" fill="#fff"/>
</g>
<defs>
<clipPath id="clip0_6_213">
<rect width="24" height="24" fill="white"/>
</clipPath>
</defs>
</svg>
