<svg width="21" height="21" viewBox="0 0 21 21" fill="none" xmlns="http://www.w3.org/2000/svg">
<path fill-rule="evenodd" clip-rule="evenodd" d="M10.5 0C4.70336 0 0 4.70336 0 10.5C0 16.2967 4.70336 21 10.5 21C16.2852 21 21 16.2967 21 10.5C21 4.70336 16.2852 0 10.5 0ZM17.4354 4.84002C18.6882 6.36605 19.4398 8.31344 19.4626 10.4203C19.1665 10.3634 16.2055 9.75975 13.2218 10.1356C13.1535 9.98753 13.0965 9.82807 13.0282 9.66866C12.846 9.23593 12.641 8.79178 12.436 8.3704C15.7386 7.0266 17.2419 5.09056 17.4354 4.84002ZM10.5 1.54881C12.7776 1.54881 14.8617 2.40293 16.4447 3.80369C16.2852 4.03146 14.93 5.84219 11.7413 7.03795C10.2722 4.33893 8.64373 2.12961 8.39318 1.78796C9.06504 1.62852 9.77117 1.54881 10.5 1.54881ZM6.68496 2.39154C6.92409 2.71041 8.51845 4.93113 10.0103 7.57319C5.81942 8.68928 2.11822 8.6665 1.71963 8.6665C2.30043 5.88774 4.1795 3.57592 6.68496 2.39154ZM1.52603 10.5114C1.52603 10.4203 1.52603 10.3292 1.52603 10.2381C1.91323 10.2494 6.26356 10.3064 10.7391 8.9626C11.0011 9.46365 11.2402 9.97612 11.468 10.4886C11.3541 10.5228 11.2288 10.557 11.115 10.5911C6.49132 12.0829 4.03146 16.16 3.82646 16.5016C2.40293 14.9187 1.52603 12.8118 1.52603 10.5114ZM10.5 19.474C8.4273 19.474 6.5141 18.7679 4.99946 17.5835C5.15889 17.2533 6.98099 13.7457 12.0374 11.9805C12.0602 11.9691 12.0716 11.9691 12.0944 11.9577C13.3584 15.2261 13.871 17.9707 14.0076 18.7565C12.9257 19.2234 11.7413 19.474 10.5 19.474ZM15.4994 17.9366C15.4084 17.3899 14.93 14.7706 13.757 11.5477C16.57 11.1036 19.0298 11.8324 19.3373 11.935C18.9501 14.429 17.5152 16.5813 15.4994 17.9366Z" fill="white"/>
</svg>
